<svg width="25" height="24" viewBox="0 0 25 24" fill="none" xmlns="http://www.w3.org/2000/svg">
<path d="M12.2002 11C12.7502 11 13.221 10.8042 13.6127 10.4125C14.0044 10.0208 14.2002 9.55 14.2002 9C14.2002 8.45 14.0044 7.97917 13.6127 7.5875C13.221 7.19583 12.7502 7 12.2002 7C11.6502 7 11.1794 7.19583 10.7877 7.5875C10.396 7.97917 10.2002 8.45 10.2002 9C10.2002 9.55 10.396 10.0208 10.7877 10.4125C11.1794 10.8042 11.6502 11 12.2002 11ZM8.5847 20V19H11.7002V15.2463C10.8194 15.0884 10.0485 14.7201 9.3877 14.1412C8.72686 13.5624 8.27203 12.8448 8.0232 11.9885C6.96553 11.8642 6.06395 11.4305 5.31845 10.6875C4.57295 9.9445 4.2002 9.04867 4.2002 8V7C4.2002 6.732 4.29986 6.49833 4.4992 6.299C4.69853 6.09967 4.9322 6 5.2002 6H7.85395V4H16.5464V6H19.2002C19.4682 6 19.7019 6.09967 19.9012 6.299C20.1005 6.49833 20.2002 6.732 20.2002 7V8C20.2002 9.04867 19.8274 9.9445 19.0819 10.6875C18.3364 11.4305 17.4349 11.8642 16.3772 11.9885C16.1284 12.8448 15.6735 13.5624 15.0127 14.1412C14.3519 14.7201 13.581 15.0884 12.7002 15.2463V19H15.8157V20H8.5847ZM7.85395 10.9155V7H5.2002V8C5.2002 8.7615 5.45403 9.41567 5.9617 9.9625C6.46936 10.5093 7.10011 10.827 7.85395 10.9155ZM12.2002 14.2692C13.1232 14.2692 13.9053 13.9488 14.5464 13.3077C15.1874 12.6667 15.5079 11.8847 15.5079 10.9615V5H8.89245V10.9615C8.89245 11.8847 9.21295 12.6667 9.85395 13.3077C10.4951 13.9488 11.2772 14.2692 12.2002 14.2692ZM16.5464 10.9155C17.3003 10.827 17.931 10.5093 18.4387 9.9625C18.9464 9.41567 19.2002 8.7615 19.2002 8V7H16.5464V10.9155Z" fill="#E8EAED"/>
</svg>
