<svg width="25" height="24" viewBox="0 0 25 24" fill="none" xmlns="http://www.w3.org/2000/svg">
<path d="M20.302 11.5652L6.74425 15.1865C6.34942 15.2903 5.97025 15.2669 5.60675 15.1162C5.24325 14.9656 4.9545 14.7178 4.7405 14.373L2.57125 10.7557C2.42642 10.5301 2.40367 10.2894 2.503 10.0337C2.60233 9.77791 2.78658 9.61791 3.05575 9.55374L3.525 9.43274C3.65967 9.39941 3.79008 9.39524 3.91625 9.42024C4.04258 9.44524 4.15958 9.50324 4.26725 9.59424L6.677 11.623L10.4943 10.6212L6.34225 5.06549C6.12692 4.77949 6.07467 4.46758 6.1855 4.12974C6.2965 3.79191 6.53017 3.57433 6.8865 3.47699L7.3155 3.37124C7.46667 3.32758 7.62717 3.32083 7.797 3.35099C7.967 3.38116 8.11417 3.45324 8.2385 3.56724L15.1173 9.38474L19.377 8.24424C19.8333 8.11991 20.2669 8.17758 20.6777 8.41724C21.0888 8.65708 21.3564 9.00516 21.4807 9.46149C21.6051 9.91799 21.5538 10.3517 21.327 10.7625C21.1 11.1733 20.7583 11.4409 20.302 11.5652ZM4.65 20.5C4.43717 20.5 4.259 20.4282 4.1155 20.2845C3.97183 20.141 3.9 19.9628 3.9 19.75C3.9 19.5372 3.97183 19.359 4.1155 19.2155C4.259 19.0718 4.43717 19 4.65 19H20.15C20.3628 19 20.541 19.0718 20.6845 19.2155C20.8282 19.359 20.9 19.5372 20.9 19.75C20.9 19.9628 20.8282 20.141 20.6845 20.2845C20.541 20.4282 20.3628 20.5 20.15 20.5H4.65Z" fill="white"/>
</svg>
