<svg width="24" height="24" viewBox="0 0 24 24" fill="none" xmlns="http://www.w3.org/2000/svg">
<path d="M1.79785 17.0845C1.79785 16.5692 1.93085 16.1092 2.19685 15.7047C2.46285 15.3002 2.8181 14.9856 3.2626 14.7607C4.21294 14.2959 5.16852 13.9375 6.12935 13.6855C7.09035 13.4337 8.14644 13.3077 9.2976 13.3077C10.4489 13.3077 11.505 13.4337 12.4659 13.6855C13.4269 13.9375 14.3825 14.2959 15.3329 14.7607C15.7774 14.9856 16.1326 15.3002 16.3986 15.7047C16.6646 16.1092 16.7976 16.5692 16.7976 17.0845V17.7885C16.7976 18.191 16.6499 18.5448 16.3544 18.85C16.0589 19.1552 15.7002 19.3077 15.2784 19.3077H3.31685C2.89518 19.3077 2.5366 19.16 2.2411 18.8645C1.9456 18.5688 1.79785 18.2102 1.79785 17.7885V17.0845ZM20.6824 19.3077H18.4111C18.5368 19.0782 18.6326 18.834 18.6986 18.575C18.7646 18.316 18.7976 18.0538 18.7976 17.7885V16.9615C18.7976 16.3052 18.6369 15.6796 18.3156 15.0847C17.9941 14.4901 17.5381 13.9798 16.9476 13.554C17.6181 13.654 18.2547 13.8087 18.8574 14.0182C19.4599 14.2279 20.0349 14.4757 20.5824 14.7615C21.099 15.0372 21.498 15.3621 21.7794 15.7362C22.0607 16.1102 22.2014 16.5187 22.2014 16.9615V17.7885C22.2014 18.2102 22.0536 18.5688 21.7581 18.8645C21.4626 19.16 21.104 19.3077 20.6824 19.3077ZM9.2976 11.6922C8.3351 11.6922 7.51119 11.3496 6.82585 10.6642C6.14052 9.97875 5.79785 9.15475 5.79785 8.19225C5.79785 7.22975 6.14052 6.40583 6.82585 5.7205C7.51119 5.035 8.3351 4.69225 9.2976 4.69225C10.2601 4.69225 11.0841 5.035 11.7696 5.7205C12.4549 6.40583 12.7976 7.22975 12.7976 8.19225C12.7976 9.15475 12.4549 9.97875 11.7696 10.6642C11.0841 11.3496 10.2601 11.6922 9.2976 11.6922ZM17.9321 8.19225C17.9321 9.15475 17.5894 9.97875 16.9041 10.6642C16.2188 11.3496 15.3949 11.6922 14.4324 11.6922C14.3195 11.6922 14.1759 11.6794 14.0016 11.6537C13.8271 11.6281 13.6835 11.5999 13.5709 11.5692C13.9652 11.0951 14.2683 10.5691 14.4801 9.99125C14.6918 9.41341 14.7976 8.81341 14.7976 8.19125C14.7976 7.56891 14.6896 6.97116 14.4736 6.39799C14.2576 5.825 13.9567 5.2975 13.5709 4.8155C13.7144 4.76416 13.8579 4.73083 14.0016 4.7155C14.1451 4.7 14.2887 4.69225 14.4324 4.69225C15.3949 4.69225 16.2188 5.035 16.9041 5.7205C17.5894 6.40583 17.9321 7.22975 17.9321 8.19225ZM3.2976 17.8077H15.2976V17.0845C15.2976 16.8757 15.2454 16.6898 15.1409 16.527C15.0365 16.3642 14.8709 16.2218 14.6439 16.1C13.8209 15.6757 12.9734 15.3542 12.1016 15.1355C11.2298 14.917 10.2951 14.8077 9.2976 14.8077C8.30027 14.8077 7.36569 14.917 6.49385 15.1355C5.62202 15.3542 4.7746 15.6757 3.9516 16.1C3.7246 16.2218 3.55885 16.3642 3.45435 16.527C3.34985 16.6898 3.2976 16.8757 3.2976 17.0845V17.8077ZM9.2976 10.1922C9.8476 10.1922 10.3184 9.99641 10.7101 9.60475C11.1018 9.21308 11.2976 8.74225 11.2976 8.19225C11.2976 7.64225 11.1018 7.17141 10.7101 6.77975C10.3184 6.38808 9.8476 6.19225 9.2976 6.19225C8.7476 6.19225 8.27677 6.38808 7.8851 6.77975C7.49344 7.17141 7.2976 7.64225 7.2976 8.19225C7.2976 8.74225 7.49344 9.21308 7.8851 9.60475C8.27677 9.99641 8.7476 10.1922 9.2976 10.1922Z" fill="white"/>
</svg>
