<svg width="25" height="24" viewBox="0 0 25 24" fill="none" xmlns="http://www.w3.org/2000/svg">
<path d="M5.11128 18C4.60745 18 4.21511 17.8163 3.93428 17.449C3.65361 17.0817 3.54594 16.6718 3.61128 16.2192L4.69978 8.60375C4.81128 7.84742 5.14169 7.22433 5.69103 6.7345C6.24053 6.24483 6.89345 6 7.64978 6H17.5498C18.3061 6 18.959 6.24483 19.5085 6.7345C20.0579 7.22433 20.3883 7.84742 20.4998 8.60375L21.5883 16.2192C21.6536 16.6718 21.5459 17.0817 21.2653 17.449C20.9844 17.8163 20.5921 18 20.0883 18C19.8664 18 19.6664 17.9663 19.4883 17.899C19.3101 17.8317 19.1409 17.7179 18.9805 17.5577L16.4228 15H8.77678L6.21903 17.5577C6.0587 17.7179 5.88945 17.8317 5.71128 17.899C5.53311 17.9663 5.33311 18 5.11128 18ZM5.51128 16.85L8.36128 14H16.8383L19.6883 16.85C19.7216 16.8833 19.8421 16.9333 20.0498 17C20.2331 17 20.3789 16.9458 20.4873 16.8375C20.5956 16.7292 20.6331 16.5833 20.5998 16.4L19.4998 8.7C19.4331 8.21667 19.2133 7.8125 18.8403 7.4875C18.4671 7.1625 18.0369 7 17.5498 7H7.64978C7.16261 7 6.73245 7.1625 6.35928 7.4875C5.98628 7.8125 5.76644 8.21667 5.69978 8.7L4.59978 16.4C4.56644 16.5833 4.60394 16.7292 4.71228 16.8375C4.82061 16.9458 4.96644 17 5.14978 17C5.20878 17 5.32928 16.95 5.51128 16.85ZM17.5998 12.8078C17.8189 12.8078 18.0084 12.7279 18.168 12.5683C18.3277 12.4086 18.4075 12.2192 18.4075 12C18.4075 11.7808 18.3277 11.5914 18.168 11.4317C18.0084 11.2721 17.8189 11.1923 17.5998 11.1923C17.3806 11.1923 17.1912 11.2721 17.0315 11.4317C16.8719 11.5914 16.792 11.7808 16.792 12C16.792 12.2192 16.8719 12.4086 17.0315 12.5683C17.1912 12.7279 17.3806 12.8078 17.5998 12.8078ZM15.5998 9.80775C15.8189 9.80775 16.0084 9.72792 16.168 9.56825C16.3277 9.40858 16.4075 9.21917 16.4075 9C16.4075 8.78083 16.3277 8.59142 16.168 8.43175C16.0084 8.27208 15.8189 8.19225 15.5998 8.19225C15.3806 8.19225 15.1912 8.27208 15.0315 8.43175C14.8719 8.59142 14.792 8.78083 14.792 9C14.792 9.21917 14.8719 9.40858 15.0315 9.56825C15.1912 9.72792 15.3806 9.80775 15.5998 9.80775ZM8.65753 12.6923H9.54203V10.9423H11.292V10.0578H9.54203V8.30775H8.65753V10.0578H6.90753V10.9423H8.65753V12.6923Z" fill="#E8EAED"/>
</svg>
