<svg width="25" height="24" viewBox="0 0 25 24" fill="none" xmlns="http://www.w3.org/2000/svg">
<path d="M6.10755 20.5C5.61039 20.5 5.1848 20.323 4.8308 19.969C4.4768 19.615 4.2998 19.1894 4.2998 18.6923V5.30775C4.2998 4.81058 4.4768 4.385 4.8308 4.031C5.1848 3.677 5.61039 3.5 6.10755 3.5H10.5576C10.6204 2.94483 10.8627 2.47275 11.2846 2.08375C11.7062 1.69458 12.2129 1.5 12.8046 1.5C13.3962 1.5 13.903 1.69458 14.3248 2.08375C14.7466 2.47275 14.9857 2.94483 15.0421 3.5H19.4921C19.9892 3.5 20.4148 3.677 20.7688 4.031C21.1228 4.385 21.2998 4.81058 21.2998 5.30775V18.6923C21.2998 19.1894 21.1228 19.615 20.7688 19.969C20.4148 20.323 19.9892 20.5 19.4921 20.5H6.10755ZM6.10755 19H19.4921C19.5691 19 19.6396 18.9679 19.7036 18.9038C19.7677 18.8398 19.7998 18.7693 19.7998 18.6923V5.30775C19.7998 5.23075 19.7677 5.16025 19.7036 5.09625C19.6396 5.03208 19.5691 5 19.4921 5H6.10755C6.03055 5 5.96005 5.03208 5.89605 5.09625C5.83189 5.16025 5.7998 5.23075 5.7998 5.30775V18.6923C5.7998 18.7693 5.83189 18.8398 5.89605 18.9038C5.96005 18.9679 6.03055 19 6.10755 19ZM8.7998 16.6345H13.7998C14.0123 16.6345 14.1904 16.5626 14.3341 16.4187C14.4779 16.2751 14.5498 16.0969 14.5498 15.8842C14.5498 15.6718 14.4779 15.4937 14.3341 15.35C14.1904 15.2065 14.0123 15.1348 13.7998 15.1348H8.7998C8.5873 15.1348 8.40922 15.2066 8.26555 15.3503C8.12172 15.4941 8.0498 15.6723 8.0498 15.885C8.0498 16.0975 8.12172 16.2756 8.26555 16.4193C8.40922 16.5628 8.5873 16.6345 8.7998 16.6345ZM8.7998 12.75H16.7998C17.0123 12.75 17.1904 12.6781 17.3341 12.5343C17.4779 12.3904 17.5498 12.2122 17.5498 11.9998C17.5498 11.7871 17.4779 11.609 17.3341 11.4655C17.1904 11.3218 17.0123 11.25 16.7998 11.25H8.7998C8.5873 11.25 8.40922 11.3219 8.26555 11.4658C8.12172 11.6096 8.0498 11.7878 8.0498 12.0003C8.0498 12.2129 8.12172 12.391 8.26555 12.5345C8.40922 12.6782 8.5873 12.75 8.7998 12.75ZM8.7998 8.86525H16.7998C17.0123 8.86525 17.1904 8.79342 17.3341 8.64975C17.4779 8.50592 17.5498 8.32767 17.5498 8.115C17.5498 7.9025 17.4779 7.72442 17.3341 7.58075C17.1904 7.43725 17.0123 7.3655 16.7998 7.3655H8.7998C8.5873 7.3655 8.40922 7.43742 8.26555 7.58125C8.12172 7.72492 8.0498 7.90308 8.0498 8.11575C8.0498 8.32825 8.12172 8.50633 8.26555 8.65C8.40922 8.7935 8.5873 8.86525 8.7998 8.86525ZM12.7998 4.34625C13.0165 4.34625 13.1956 4.27542 13.3373 4.13375C13.479 3.99208 13.5498 3.81292 13.5498 3.59625C13.5498 3.37958 13.479 3.20042 13.3373 3.05875C13.1956 2.91708 13.0165 2.84625 12.7998 2.84625C12.5831 2.84625 12.404 2.91708 12.2623 3.05875C12.1206 3.20042 12.0498 3.37958 12.0498 3.59625C12.0498 3.81292 12.1206 3.99208 12.2623 4.13375C12.404 4.27542 12.5831 4.34625 12.7998 4.34625Z" fill="white"/>
</svg>
