<svg width="35" height="35" viewBox="0 0 35 35" fill="none" xmlns="http://www.w3.org/2000/svg">
<path d="M6.12533 25.6302C5.49338 25.46 4.94651 25.1441 4.4847 24.6823C4.02289 24.2205 3.70692 23.6736 3.53678 23.0416C3.39095 22.4826 3.2755 21.8021 3.19043 21C3.10536 20.1979 3.03852 19.4323 2.98991 18.7031C2.9413 17.8281 2.91699 16.941 2.91699 16.0416C2.91699 15.1423 2.9413 14.2552 2.98991 13.3802C3.03852 12.651 3.10536 11.8854 3.19043 11.0833C3.2755 10.2812 3.39095 9.60067 3.53678 9.04165C3.70692 8.4097 4.02289 7.86283 4.4847 7.40102C4.94651 6.93922 5.49338 6.62324 6.12533 6.4531C6.68435 6.30727 7.58974 6.19182 8.84147 6.10675C10.0932 6.02168 11.3632 5.95484 12.6514 5.90623C14.1583 5.85762 15.7746 5.83331 17.5003 5.83331C19.226 5.83331 20.8423 5.85762 22.3493 5.90623C23.6375 5.95484 24.9074 6.02168 26.1592 6.10675C27.4109 6.19182 28.3163 6.30727 28.8753 6.4531C29.5073 6.62324 30.0541 6.93922 30.5159 7.40102C30.9778 7.86283 31.2937 8.4097 31.4639 9.04165C31.6826 9.86803 31.8345 10.7734 31.9196 11.7578C32.0047 12.7422 32.0594 13.7205 32.0837 14.6927C32.0837 15.1788 31.8892 15.5677 31.5003 15.8594C31.1114 16.151 30.6739 16.2361 30.1878 16.1146C30.0177 16.0903 29.8536 16.072 29.6956 16.0599C29.5377 16.0477 29.3614 16.0416 29.167 16.0416C27.1496 16.0416 25.43 16.7526 24.0081 18.1745C22.5863 19.5963 21.8753 21.316 21.8753 23.3333C21.8753 23.5278 21.8814 23.7161 21.8936 23.8984C21.9057 24.0807 21.9361 24.2691 21.9847 24.4635C22.0576 24.901 21.9604 25.3021 21.693 25.6666C21.4257 26.0312 21.0854 26.2135 20.6722 26.2135C20.2347 26.2135 19.8215 26.2196 19.4326 26.2318C19.0437 26.2439 18.7035 26.25 18.4118 26.25H17.5003C15.7746 26.25 14.1583 26.2257 12.6514 26.1771C11.3632 26.1285 10.0932 26.0616 8.84147 25.9765C7.58974 25.8915 6.68435 25.776 6.12533 25.6302ZM15.6774 19.7969L21.0732 16.6614C21.3163 16.5156 21.4378 16.309 21.4378 16.0416C21.4378 15.7743 21.3163 15.5677 21.0732 15.4219L15.6774 12.2864C15.4344 12.1406 15.1913 12.1467 14.9482 12.3047C14.7052 12.4627 14.5837 12.6753 14.5837 12.9427V19.1406C14.5837 19.408 14.7052 19.6206 14.9482 19.7786C15.1913 19.9366 15.4344 19.9427 15.6774 19.7969ZM27.7087 24.7916H26.2503C25.8371 24.7916 25.4908 24.6519 25.2113 24.3724C24.9317 24.0929 24.792 23.7465 24.792 23.3333C24.792 22.9201 24.9317 22.5738 25.2113 22.2943C25.4908 22.0147 25.8371 21.875 26.2503 21.875H27.7087V20.4166C27.7087 20.0035 27.8484 19.6571 28.1279 19.3776C28.4074 19.0981 28.7538 18.9583 29.167 18.9583C29.5802 18.9583 29.9265 19.0981 30.2061 19.3776C30.4856 19.6571 30.6253 20.0035 30.6253 20.4166V21.875H32.0837C32.4969 21.875 32.8432 22.0147 33.1227 22.2943C33.4022 22.5738 33.542 22.9201 33.542 23.3333C33.542 23.7465 33.4022 24.0929 33.1227 24.3724C32.8432 24.6519 32.4969 24.7916 32.0837 24.7916H30.6253V26.25C30.6253 26.6632 30.4856 27.0095 30.2061 27.289C29.9265 27.5686 29.5802 27.7083 29.167 27.7083C28.7538 27.7083 28.4074 27.5686 28.1279 27.289C27.8484 27.0095 27.7087 26.6632 27.7087 26.25V24.7916Z" fill="#E8EAED"/>
</svg>
